<svg viewBox="0 0 200 200" xmlns="http://www.w3.org/2000/svg">
  <defs>
    <linearGradient id="neonGradient" x1="0%" y1="0%" x2="100%" y2="100%">
      <stop offset="0%" stop-color="hsl(180, 100%, 70%)" />
      <stop offset="100%" stop-color="hsl(300, 100%, 70%)" />
    </linearGradient>
    <filter id="glow">
      <feGaussianBlur stdDeviation="3" result="blur" />
      <feMerge>
        <feMergeNode in="blur" />
        <feMergeNode in="SourceGraphic" />
      </feMerge>
    </filter>
  </defs>

  <g stroke="url(#neonGradient)" fill="none" filter="url(#glow)">
    <!-- 星型外枠 -->
    <polygon points="100,35 119,75 165,75 129,105 145,150 100,125 55,150 71,105 35,75 81,75" stroke-width="2.5" />

    <!-- 中心コア -->
    <circle cx="100" cy="100" r="8" fill="url(#neonGradient)" />

    <!-- 内部多角形 -->
    <polygon points="100,65 125,80 125,110 100,125 75,110 75,80" stroke-width="2" />
    <line x1="100" y1="65" x2="100" y2="125" stroke-width="1" />
    <line x1="75" y1="80" x2="125" y2="110" stroke-width="1" />
    <line x1="75" y1="110" x2="125" y2="80" stroke-width="1" />

    <!-- ノード（大小交互） -->
    <circle cx="100" cy="35" r="3.5" fill="url(#neonGradient)" />
    <circle cx="119" cy="75" r="2" fill="url(#neonGradient)" />
    <circle cx="165" cy="75" r="3.5" fill="url(#neonGradient)" />
    <circle cx="129" cy="105" r="2" fill="url(#neonGradient)" />
    <circle cx="145" cy="150" r="3.5" fill="url(#neonGradient)" />
    <circle cx="100" cy="125" r="2" fill="url(#neonGradient)" />
    <circle cx="55" cy="150" r="3.5" fill="url(#neonGradient)" />
    <circle cx="71" cy="105" r="2" fill="url(#neonGradient)" />
    <circle cx="35" cy="75" r="3.5" fill="url(#neonGradient)" />
    <circle cx="81" cy="75" r="2" fill="url(#neonGradient)" />

    <!-- 放射状のスパイク -->
    <line x1="100" y1="88" x2="100" y2="70" stroke-width="1.2" stroke-linecap="round" />
    <line x1="111" y1="89" x2="123" y2="77" stroke-width="1.2" stroke-linecap="round" />
    <line x1="120" y1="98" x2="135" y2="98" stroke-width="1.2" stroke-linecap="round" />
    <line x1="111" y1="111" x2="123" y2="123" stroke-width="1.2" stroke-linecap="round" />
    <line x1="100" y1="112" x2="100" y2="130" stroke-width="1.2" stroke-linecap="round" />
    <line x1="89" y1="111" x2="77" y2="123" stroke-width="1.2" stroke-linecap="round" />
    <line x1="80" y1="98" x2="65" y2="98" stroke-width="1.2" stroke-linecap="round" />
    <line x1="89" y1="89" x2="77" y2="77" stroke-width="1.2" stroke-linecap="round" />
  </g>
</svg>
